<?xml version="1.0" encoding="UTF-8"?>
<!DOCTYPE svg PUBLIC "-//W3C//DTD SVG 1.1//EN" "http://www.w3.org/Graphics/SVG/1.1/DTD/svg11.dtd">
<!-- Creator: CorelDRAW 2020 (64-Bit) -->
<svg xmlns="http://www.w3.org/2000/svg" xml:space="preserve" width="80.5103mm" height="74.3921mm" version="1.1" style="shape-rendering:geometricPrecision; text-rendering:geometricPrecision; image-rendering:optimizeQuality; fill-rule:evenodd; clip-rule:evenodd"
viewBox="0 0 3702.75 3421.36"
 xmlns:xlink="http://www.w3.org/1999/xlink"
 xmlns:xodm="http://www.corel.com/coreldraw/odm/2003">
 <defs>
  <style type="text/css">
   <![CDATA[
    .fil0 {fill:#D8E3FF}
    .fil1 {fill:#4B49AC;fill-rule:nonzero}
   ]]>
  </style>
 </defs>
 <g id="Layer_x0020_1">
  <metadata id="CorelCorpID_0Corel-Layer"/>
  <g id="_2298951036768">
   <circle class="fil0" cx="2068.82" cy="1953.2" r="1468.16"/>
   <g>
    <path class="fil1" d="M554.59 787.94c-150.48,35.17 -219.94,219.89 -95.92,481 18.19,-69.59 47.73,-126.28 82.91,-172.61l-24.03 -49.4 44.85 23.78c23.59,-26.9 49.04,-49.68 74.92,-69.08l-58.54 -89.46 114.82 52.57c52.88,-30.18 103.04,-47.49 138.36,-57.13 -56.28,123.68 -100.06,253.95 -128.09,388.6 -31.82,159.51 -41.13,324.82 -24.32,488.25 16.64,163.38 57.21,324.64 119.54,477.11 38.86,95.85 86.23,189.41 141.1,277.15 -74.72,23.9 -143.25,50.2 -204.54,78.59l31.85 44.56c36.08,17.38 61.1,45.1 82.81,69.14 31.2,34.51 55.83,61.8 106.24,61.8 50.35,0 74.96,-27.29 106.11,-61.8 34.69,-38.44 77.84,-86.25 161.11,-86.25 83.22,0 126.34,47.81 161,86.25 31.14,34.56 55.71,61.8 106,61.8 3.21,0 6.26,0.54 9.23,1.3 2.95,-0.76 6.02,-1.3 9.22,-1.3 50.41,0 75.04,-27.29 106.24,-61.8 34.7,-38.44 77.88,-86.25 161.16,-86.25 83.3,0 126.49,47.81 161.19,86.25 31.18,34.51 55.83,61.8 106.24,61.8 50.33,0 74.96,-27.29 106.11,-61.8 34.69,-38.44 77.85,-86.25 161.11,-86.25 83.22,0 126.34,47.81 160.98,86.25 31.15,34.56 55.73,61.8 106.01,61.8 3.2,0 6.25,0.54 9.22,1.3 2.97,-0.76 6.02,-1.3 9.22,-1.3 50.41,0 75.05,-27.29 106.24,-61.8 34.7,-38.44 77.89,-86.25 161.18,-86.25 83.29,0 126.47,47.81 161.18,86.25 31.2,34.51 55.83,61.8 106.24,61.8 50.34,0 74.96,-27.29 106.12,-61.8 31.23,-34.62 69.46,-76.75 137.57,-84.78 -118.93,-62.74 -271.41,-116.73 -448.29,-158.71 4.49,-7.63 9.07,-15.2 13.43,-22.91 57.89,-102.1 103.65,-211.13 134.6,-324.33 15.07,-56.72 26.38,-114.37 34.02,-172.45 6.54,-58.23 10.03,-116.73 8.57,-175.14 -2.43,-99.39 -17.96,-197.83 -43.79,-292.84 22.54,10.29 53.6,27.05 85.14,52.36l82.49 -22.93 -48.74 53.64c15.27,15.76 29.87,33.72 42.8,54.26l32.54 -11.16 -21.35 30.52c18.61,34.77 32.35,75.88 37.11,124.41 110.88,-161.58 84.08,-292.66 -12.91,-332.25 30.81,1.54 64.07,6.59 99.29,16.71l28.78 -27.92 0.62 37.41c15.03,5.39 30.34,11.73 45.96,19.11l19.91 -30.53 8.01 44.73c48.24,26.2 98.81,62.56 150.78,112.22 -181.08,-309.37 -326.16,-354.07 -432.58,-293.39 24.92,-25.6 53.2,-51.85 84.78,-77.03l-14.47 -39.47 40.4 19.69c8.8,-6.46 17.82,-12.8 27.07,-19.03l-21.66 -52.21 51.63 32.95c56.35,-34.22 120.16,-62.79 191.2,-79.56 -247.5,-43.53 -388.06,12.28 -456.69,103.43 27.21,-85.32 38.61,-215.5 -65.26,-346.62 3.5,44.99 6.37,87.21 8.73,126.42l30.39 20.9 -29.17 0.03c2.84,50.17 4.81,94.88 6.17,133.51 -38.61,-132.86 -149.3,-257.27 -432.04,-245.67 42.72,23.93 81.57,51.22 117.06,80.46l65.94 -3.28 -17.2 46.63c9.22,8.84 18.16,17.8 26.82,26.84l44.62 -7.66 -15.67 39.05c31.14,35.53 58.25,71.75 81.77,106.89 -87.81,-55.1 -380.46,-121.21 -444.07,137.47l0.44 -0.05c2.16,-0.3 4.21,-0.6 0.06,-0.01 5.39,-0.76 152.84,-21.34 213.87,-17.82l29.53 -41.41 2.11 44.04c9.67,1.04 19.11,2.27 28.33,3.68l20.53 -19.34 1.57 23.09c55.49,10.76 101.71,28.2 139.66,47.83 -76.6,-11.16 -196.06,47.18 -144.26,174.85l-0.01 -0.01 0.03 0.06 0 0c0.03,-0.02 107.89,-67.07 161.57,-70.19 -53.72,33.58 -56.14,87.53 -3.15,166.82 2.97,-33.13 12.46,-60.14 24.63,-82.19l-6.37 -27.55 15.43 12.71c14.17,-20.99 30.39,-36.26 44.28,-46.94 21.95,96.88 32.58,195.78 29.35,294.02 -1.75,54.06 -8.11,107.73 -17.13,160.82 -10.11,52.94 -23.51,105.12 -40.26,156.24 -42.13,125.22 -103.72,242.25 -181.03,349.2 -228.04,-43.38 -488.41,-68.01 -764.97,-68.01 -325.22,0 -628.02,34.06 -882.18,92.63 -2.63,-3.38 -5.37,-6.59 -7.97,-9.99 -156.98,-207.3 -263.99,-451.2 -305.53,-708.28 -23.88,-147.19 -24.38,-298.31 -3.67,-447.43 20.01,-134.92 57.19,-268 108.93,-396.15 18.15,18.88 39,45.53 55.21,80.36l25.42 -14.93 -15.67 38.65c12.59,34.95 20.17,76.5 16.78,125.45 95.61,-103.19 104.6,-182.35 34.15,-243.72 77.45,16.98 162.38,55.68 219.05,139.74 38.06,-190.56 -55.33,-286.75 -169.51,-288.27 59.83,-19.78 131.23,-34.46 214.54,-37.25l7.66 -33.28 25.42 32.95c13.74,0.06 27.77,0.46 42.12,1.19l13.27 -63.65 33.42 67.17c91.41,9.2 193.98,32.35 308.13,75.82 -275.04,-306.58 -474.28,-363.22 -614.96,-303.34 42.41,-45.74 90.31,-92.19 143.91,-136.71l-13.78 -60.53 63.21 21.51c14.73,-11.16 29.82,-22.13 45.31,-32.87l-14.25 -71.91 95.31 20.06c58.47,-34.33 121.42,-65.08 189.17,-90.01 -409.17,-82.54 -599.27,73.02 -686.36,257.58 10.96,-55.94 24.19,-120.63 39.96,-193.04l-42.49 -6.83 49.15 -23.38c12.51,-56.59 26.48,-117.4 42.05,-182.13 -181.77,166.9 -195.35,359.16 -175.52,489.77 -78.82,-148.7 -270.61,-262.63 -641.26,-256.68 99.6,40.95 185.94,97.38 260.07,160.32l82.88 -36.05 -43.69 71.03c12.02,11.23 23.7,22.57 35.01,34.02l63.43 -19.33 -30.26 54.16c40.16,44 75.27,88.78 105.64,131.87 -140.96,-113.09 -362.67,-81.66 -698.24,326.99 87.23,-60.28 169.34,-101.5 245.67,-128.5l22.07 -63.29 21.92 49.1c24.45,-7.12 48.25,-12.82 71.37,-17.18l9.58 -54.35 35.46 47.36c53.66,-6.57 103.29,-6.21 148.52,-1.3z"/>
    <path class="fil1" d="M1104.52 1793.3c0,206.62 70.67,396.61 188.88,547.58 81.48,-15.2 166.32,-28 254.08,-38.06 -3.11,-16.78 -6.33,-33.5 -8.31,-50.42 -1.96,-22.59 -5.26,-44.91 -4.93,-67.61 -2.06,-45.14 2.75,-90.39 10.24,-134.62 7.68,-44.31 21.34,-87.34 38.45,-128.55 9.36,-21.87 19.55,-42.77 31.3,-63.18 -16.32,1.69 -35.58,4.88 -56.25,10.95l-52.37 -40.82 19.11 52.88c-15.61,6.78 -31.4,15.37 -46.73,26.27l-20.06 -17.62 6.3 28.2c-23.62,19.45 -45.61,44.88 -63.36,78.28 -31.8,-148.67 26.16,-234.75 107.43,-234.51 -22.57,-8 -47.91,-14.2 -76.16,-17.34l-12.41 -28.54 -11.48 26.66c-12.36,-0.57 -25.23,-0.55 -38.61,0.13l-5.26 -27.78 -18.97 29.71c-42.35,4.56 -89.35,15.69 -141.3,35.95 221.29,-168.4 338.56,-157.59 396.95,-82.63 -10.3,-25.73 -22.84,-52.91 -38.05,-80.3l22.05 -24.04 -34.8 2.21c-4.4,-7.24 -8.99,-14.46 -13.79,-21.66l30.97 -31.05 -46.77 8.39c-30.31,-41.19 -67.63,-80.54 -113.64,-113.57 190.4,41.91 274.71,123.47 297.01,209.13 5.69,-69.24 35.97,-165.99 149.22,-229.35 -15.82,31.23 -30.34,60.66 -43.61,88.1l-27.97 6 20.91 8.65c-16.86,35.14 -31.48,66.64 -43.87,93.94 66.96,-83.88 183.11,-140.42 382.48,-48.56 -37.7,4.54 -73.65,12.64 -107.73,23.12l-46.34 -21.82 -1.43 38.52c-9.23,3.61 -18.29,7.41 -27.18,11.32l-29.74 -18.68 -0.29 32.64c-32.84,16.29 -62.98,34.25 -90.23,52.5 79.26,-13.58 174.33,39.58 277.9,229.81 -53.14,-36.08 -102.83,-60.37 -148.49,-76.16l-8.94 -38.43 -14.52 30.97c-7.25,-2.13 -14.39,-4.02 -21.41,-5.73l-9.01 -19.94 -7.95 16.09c-42.98,-8.68 -81.28,-9.81 -114.3,-6.94 58.25,14.62 94.36,75.17 51.77,168.06 -18.81,-49.87 -57.56,-79.99 -95.14,-98.08 28.61,39.96 14.41,79.37 -47.03,120.58 7.68,-24.63 8.84,-46.82 6.64,-66.23l12.7 -17.88 -14.81 4.56c-5.92,-28.79 -18.9,-49.81 -27.34,-61.13 -4.51,8.4 -8.86,17.11 -12.83,25.58 -8.03,18.24 -15.51,36.73 -21.48,55.75 -12.02,37.95 -20.83,76.94 -24.11,116.41 -3.12,39.4 -4.04,78.95 1.28,118.04 1.3,19.6 6.08,38.89 9.35,58.18 3.83,18.74 9.69,37.14 14.39,55.62 66.6,-5.97 134.62,-10.44 203.86,-13.24l135.12 -135.12 90.08 90.08 226.14 -226.14 307.6 307.6c31.86,4.53 63.16,9.54 94.15,14.8 113.49,-149.31 180.97,-335.49 180.97,-537.52 0,-34.56 -2.17,-68.58 -6.02,-102.12l-8.55 -12.8c-22.2,-33.21 -36.86,-64.02 -44.11,-92.95 -9.12,5.13 -17.94,10.32 -26.09,15.37l-65.42 40.67 -28.98 -71.37c-26.44,-65.14 -22.44,-128.6 11.28,-178.7 2.32,-3.42 4.76,-6.78 7.33,-10.04 -3.73,-0.47 -7.48,-0.91 -11.26,-1.32l-14.52 -1.56 -13.94 -0.81c-3.67,-0.21 -7.74,-0.29 -12.13,-0.29 -63.49,0 -188.18,17.48 -189.42,17.66l-94.99 13.4 22.89 -93.15c23.59,-95.9 77.86,-165.68 155.22,-203.89 -154.41,-129.31 -353.29,-207.25 -570.44,-207.25 -491.07,0 -889.16,398.1 -889.16,889.16z"/>
    <path class="fil1" d="M3665.72 2936.97c-50.28,0 -74.86,-27.26 -106,-61.82 -34.65,-38.42 -77.78,-86.25 -161,-86.25 -83.26,0 -126.42,47.83 -161.09,86.25 -31.17,34.53 -55.78,61.82 -106.12,61.82 -50.41,0 -75.04,-27.29 -106.24,-61.82 -34.7,-38.42 -77.88,-86.25 -161.18,-86.25 -83.28,0 -126.47,47.83 -161.18,86.25 -31.19,34.53 -55.83,61.82 -106.24,61.82 -3.2,0 -6.25,0.53 -9.22,1.3 -2.97,-0.76 -6.02,-1.3 -9.22,-1.3 -50.28,0 -74.86,-27.26 -106.01,-61.82 -34.64,-38.42 -77.77,-86.25 -160.98,-86.25 -83.26,0 -126.42,47.83 -161.11,86.25 -31.15,34.53 -55.78,61.82 -106.11,61.82 -50.41,0 -75.06,-27.29 -106.24,-61.82 -34.7,-38.42 -77.89,-86.25 -161.19,-86.25 -83.28,0 -126.45,47.83 -161.16,86.25 -31.2,34.53 -55.83,61.82 -106.24,61.82 -3.2,0 -6.26,0.53 -9.22,1.3 -2.97,-0.76 -6.02,-1.3 -9.23,-1.3 -50.28,0 -74.86,-27.26 -106,-61.82 -34.65,-38.42 -77.78,-86.25 -161,-86.25 -83.27,0 -126.42,47.83 -161.11,86.25 -29.58,32.78 -53.27,59.04 -98.68,61.6l47.41 66.34c49.21,-15.16 80.13,-49.42 106.24,-78.35 31.19,-34.53 55.8,-61.82 106.14,-61.82 50.28,0 74.88,27.25 106.01,61.82 34.64,38.42 77.77,86.25 160.98,86.25 3.21,0 6.26,-0.53 9.23,-1.3 2.95,0.76 6.02,1.3 9.22,1.3 83.3,0 126.47,-47.83 161.18,-86.25 31.2,-34.53 55.85,-61.82 106.22,-61.82 50.41,0 75.04,27.29 106.24,61.82 34.7,38.42 77.88,86.25 161.19,86.25 83.25,0 126.41,-47.83 161.08,-86.25 31.16,-34.53 55.78,-61.82 106.14,-61.82 50.28,0 74.86,27.25 106.01,61.82 34.64,38.42 77.76,86.25 160.98,86.25 3.2,0 6.25,-0.53 9.22,-1.3 2.97,0.76 6.02,1.3 9.22,1.3 83.31,0 126.48,-47.83 161.19,-86.25 31.2,-34.53 55.83,-61.82 106.23,-61.82 50.41,0 75.04,27.29 106.24,61.82 34.7,38.42 77.88,86.25 161.18,86.25 83.25,0 126.42,-47.83 161.07,-86.25 31.19,-34.53 55.8,-61.82 106.14,-61.82 50.3,0 74.88,27.25 106.01,61.82 34.64,38.42 77.78,86.25 160.98,86.25 20.44,0 37.03,-16.55 37.03,-37.01 0,-20.46 -16.58,-37.02 -37.03,-37.02zm-3082.49 -114.46c-22.11,15.94 -39.56,35.26 -55.26,52.65 -31.19,34.53 -55.83,61.82 -106.24,61.82 -20.44,0 -37.01,16.57 -37.01,37.02 0,20.46 16.57,37.01 37.01,37.01 83.31,0 126.48,-47.83 161.19,-86.25 14.78,-16.35 28.08,-31.08 43.34,-42.05l-43.02 -60.2z"/>
   </g>
  </g>
 </g>
</svg>
